<svg width="500" height="500" version="1.1" xmlns="http://www.w3.org/2000/svg" desc="Created with imagetracer.js version 0.2.1" ><path fill="rgb(0,0,0)" stroke="rgb(0,0,0)" stroke-width="1" opacity="0" d="M 0 0 L 500 0 L 500 500 L 0 500 L 0 0 Z M 315 39 Q 306 51 293 59 L 284 63 L 274 65 L 256 64 L 231 58 L 211 58 L 201 60 Q 183 65 172 76 Q 160 87 153 103 L 150 112 L 149 125 L 148 126 L 148 167 L 149 168 L 149 177 Q 153 198 166 212 Q 176 222 190 229 L 191 230 L 191 250 L 156 256 L 136 266 Q 125 275 118 288 L 113 306 L 114 326 L 120 341 L 120 461 L 121 461 L 135 461 L 136 360 L 209 413 L 216 417 L 224 419 L 229 419 L 240 416 L 304 387 L 304 461 L 319 461 L 319 461 L 319 380 L 323 379 Q 331 374 332 362 L 354 362 L 355 361 L 358 361 Q 361 367 369 369 L 380 369 L 401 359 Q 409 354 410 343 L 428 330 Q 442 318 452 302 L 446 293 L 340 167 L 318 192 L 325 205 Q 326 211 323 214 Q 318 221 307 221 L 311 234 L 309 242 L 302 248 L 291 247 L 283 239 L 281 237 L 271 248 L 248 248 L 248 230 L 269 216 Q 283 202 289 180 L 290 175 L 290 118 L 296 115 Q 306 106 313 93 L 318 77 L 318 69 L 319 68 L 318 54 L 315 39 Z M 402 44 L 402 73 L 417 73 L 418 72 L 418 46 L 417 44 L 402 44 Z M 374 79 L 374 94 L 396 94 L 396 79 L 374 79 Z M 424 79 L 424 94 L 446 94 L 446 79 L 424 79 Z M 402 100 L 402 129 L 417 129 L 418 128 L 418 102 L 417 100 L 402 100 Z M 78 185 L 78 214 L 93 214 L 93 185 L 78 185 Z M 50 220 L 50 235 L 72 235 L 72 220 L 50 220 Z M 99 220 L 99 235 L 121 235 L 121 220 L 99 220 Z M 78 241 L 78 270 L 93 270 L 93 241 L 78 241 Z " /><path fill="rgb(0,0,0)" stroke="rgb(0,0,0)" stroke-width="1" opacity="0" d="M 302.5 70 L 303 74.5 Q 298.5 95 283.5 105 L 267.5 113 L 254 114 L 254 129 L 263.5 129 L 275 126 L 275 173.5 L 273 181.5 Q 267.2 198.2 254.5 208 Q 247 214.5 236.5 218 L 227.5 220 L 211.5 220 L 199.5 217 L 189.5 212 L 179 204 L 170 191.5 L 164 174.5 L 164 166.5 L 163 165.5 L 163 125.5 Q 165.8 123.7 164 117.5 L 172 98.5 L 184.5 85 Q 192.2 78.2 203.5 75 L 212.5 73 L 228.5 73 L 259.5 80 L 274.5 80 Q 276.3 77.3 282.5 79 L 291.5 76 L 302.5 70 Z " /><path fill="rgb(0,0,0)" stroke="rgb(0,0,0)" stroke-width="1" opacity="0" d="M 339.5 190 L 410 273.5 L 414 278.5 L 414 280.5 L 399 297.5 L 408.5 308 L 419 298.5 L 424.5 291 L 433 301.5 L 419.5 317 L 405.5 327 Q 399.7 317.8 383.5 319 Q 365.5 322 357 334.5 L 351.5 347 L 330.5 347 L 329 345.5 L 324.5 339 L 312.5 333 L 303.5 333 L 290.5 337 Q 268.5 327 253 310.5 L 246 302.5 L 246 300.5 L 253.5 292 L 257 294.5 L 271.5 310 L 285.5 320 L 292.5 323 L 299 311.5 L 299 309 L 288.5 304 L 271 288.5 L 264 279.5 L 281.5 259 Q 288.8 264.7 303.5 263 Q 314.4 260.4 320 252.5 Q 326.4 245.4 326 231.5 L 329.5 228 L 333 225.5 Q 340.6 218.1 340 202.5 L 337 192.5 L 339.5 190 Z M 346 234 L 346 263 L 361 263 L 361 234 L 346 234 Z M 329 275 L 316 282 L 329 307 L 342 301 L 330 277 Q 331 274 329 275 Z M 367 277 L 367 299 L 382 299 L 382 277 L 367 277 Z " /><path fill="rgb(0,0,0)" stroke="rgb(0,0,0)" stroke-width="1" opacity="0" d="M 206 234 L 209.5 235 L 229.5 235 L 233 234 L 233 256.5 L 232 259 L 228.5 261 L 219.5 263 L 210.5 261 L 206 257.5 L 206 234 Z " /><path fill="rgb(0,0,0)" stroke="rgb(0,0,0)" stroke-width="1" opacity="0" d="M 246 263 L 258 263.5 L 227 299.5 L 227 301.5 Q 236.9 317.1 250.5 329 L 271 343.5 Q 271.8 346.1 268.5 345 L 230.5 358 L 192.5 332 L 189 331 L 182 343.5 L 228.5 375 L 290.5 353 L 309.5 348 L 316 352.5 L 318 359.5 Q 316.6 365.6 311.5 368 L 236.5 401 L 228.5 404 L 224.5 404 L 213.5 398 L 150.5 353 L 138 341.5 Q 127.2 329.8 128 306.5 Q 131.1 289.1 142.5 280 L 158.5 271 L 192.5 265 Q 201.4 280.1 228.5 277 Q 239.3 274.3 245 266.5 L 246 263 Z " /><path fill="rgb(0,0,0)" stroke="rgb(0,0,0)" stroke-width="1" opacity="0" d="M 383.5 334 Q 392.5 332.5 395 337.5 Q 396.5 344.5 392.5 346 L 377.5 354 L 372.5 354 L 369 351.5 L 368 345.5 L 374.5 338 L 383.5 334 Z " /><path fill="rgb(255,255,255)" stroke="rgb(255,255,255)" stroke-width="1" opacity="0.49019607843137253" d="M 314.5 39 L 315 41.5 L 313.5 41 L 299 54.5 L 314.5 39 Z " /><path fill="rgb(255,255,255)" stroke="rgb(255,255,255)" stroke-width="1" opacity="0.49019607843137253" d="M 315.5 43 L 316 46.5 L 315 46.5 L 315.5 43 Z " /><path fill="rgb(255,255,255)" stroke="rgb(255,255,255)" stroke-width="1" opacity="0.49019607843137253" d="M 402.5 44 L 403 72 L 417 72 L 417 45.5 L 418 45.5 L 418 71.5 L 416.5 73 L 402 73 L 402.5 44 Z " /><path fill="rgb(255,255,255)" stroke="rgb(255,255,255)" stroke-width="1" opacity="0.49019607843137253" d="M 316.5 48 L 317 51.5 L 316 51.5 L 316.5 48 Z " /><path fill="rgb(255,255,255)" stroke="rgb(255,255,255)" stroke-width="1" opacity="0.49019607843137253" d="M 317.5 53 L 318 57.5 L 317 57.5 L 317.5 53 Z " /><path fill="rgb(255,255,255)" stroke="rgb(255,255,255)" stroke-width="1" opacity="0.49019607843137253" d="M 297.5 55 L 295.5 58 L 293.5 59 L 294.5 57 L 297.5 55 Z " /><path fill="rgb(255,255,255)" stroke="rgb(255,255,255)" stroke-width="1" opacity="0.49019607843137253" d="M 210.5 58 L 219 58.5 L 210.5 59 L 210.5 58 Z " /><path fill="rgb(255,255,255)" stroke="rgb(255,255,255)" stroke-width="1" opacity="0.49019607843137253" d="M 224.5 58 L 231 58.5 L 224.5 59 L 224.5 58 Z " /><path fill="rgb(255,255,255)" stroke="rgb(255,255,255)" stroke-width="1" opacity="0.49019607843137253" d="M 204.5 59 L 208 59.5 L 204.5 60 L 204.5 59 Z " /><path fill="rgb(255,255,255)" stroke="rgb(255,255,255)" stroke-width="1" opacity="0.49019607843137253" d="M 233.5 59 L 237 59.5 L 233.5 60 L 233.5 59 Z " /><path fill="rgb(255,255,255)" stroke="rgb(255,255,255)" stroke-width="1" opacity="0.49019607843137253" d="M 200.5 60 L 203 60.5 L 200.5 61 L 200.5 60 Z " /><path fill="rgb(255,255,255)" stroke="rgb(255,255,255)" stroke-width="1" opacity="0.49019607843137253" d="M 238.5 60 L 241 60.5 L 238.5 61 L 238.5 60 Z " /><path fill="rgb(255,255,255)" stroke="rgb(255,255,255)" stroke-width="1" opacity="0.49019607843137253" d="M 243.5 61 L 246 61.5 L 243.5 62 L 243.5 61 Z " /><path fill="rgb(255,255,255)" stroke="rgb(255,255,255)" stroke-width="1" opacity="0.49019607843137253" d="M 286.5 61 L 288 61.5 L 284.5 63 L 284.5 62 L 286.5 61 Z " /><path fill="rgb(255,255,255)" stroke="rgb(255,255,255)" stroke-width="1" opacity="0.49019607843137253" d="M 247.5 62 L 250 62.5 L 247.5 63 L 247.5 62 Z " /><path fill="rgb(255,255,255)" stroke="rgb(255,255,255)" stroke-width="1" opacity="0.49019607843137253" d="M 318.5 62 L 319 67.5 L 318 67.5 L 318.5 62 Z " /><path fill="rgb(255,255,255)" stroke="rgb(255,255,255)" stroke-width="1" opacity="0.49019607843137253" d="M 191.5 63 L 193 63.5 L 184.5 68 L 185.5 66 L 191.5 63 Z " /><path fill="rgb(255,255,255)" stroke="rgb(255,255,255)" stroke-width="1" opacity="0.49019607843137253" d="M 251.5 63 L 255 63.5 L 251.5 64 L 251.5 63 Z " /><path fill="rgb(255,255,255)" stroke="rgb(255,255,255)" stroke-width="1" opacity="0.49019607843137253" d="M 280.5 63 L 283 63.5 L 280.5 64 L 280.5 63 Z " /><path fill="rgb(255,255,255)" stroke="rgb(255,255,255)" stroke-width="1" opacity="0.49019607843137253" d="M 256.5 64 L 262 64.5 L 256.5 65 L 256.5 64 Z " /><path fill="rgb(255,255,255)" stroke="rgb(255,255,255)" stroke-width="1" opacity="0.49019607843137253" d="M 274.5 64 L 279 64.5 L 274.5 65 L 274.5 64 Z " /><path fill="rgb(255,255,255)" stroke="rgb(255,255,255)" stroke-width="1" opacity="0.49019607843137253" d="M 182.5 68 L 181.5 70 L 178.5 72 L 180.5 69 L 182.5 68 Z " /><path fill="rgb(255,255,255)" stroke="rgb(255,255,255)" stroke-width="1" opacity="0.49019607843137253" d="M 302.5 69 Q 305.9 68.1 304 73.5 L 303 73.5 L 302.5 70 L 295.5 74 L 295.5 73 L 302.5 69 Z " /><path fill="rgb(255,255,255)" stroke="rgb(255,255,255)" stroke-width="1" opacity="0.49019607843137253" d="M 176.5 72 L 172.5 77 L 167 81.5 L 160.5 90 L 162 87.5 L 171.5 76 L 176.5 72 Z " /><path fill="rgb(255,255,255)" stroke="rgb(255,255,255)" stroke-width="1" opacity="0.49019607843137253" d="M 214.5 72 L 226 72.5 L 214.5 73 L 214.5 72 Z " /><path fill="rgb(255,255,255)" stroke="rgb(255,255,255)" stroke-width="1" opacity="0.49019607843137253" d="M 208.5 73 L 212 73.5 L 208.5 74 L 208.5 73 Z " /><path fill="rgb(255,255,255)" stroke="rgb(255,255,255)" stroke-width="1" opacity="0.49019607843137253" d="M 229.5 73 L 233 73.5 L 229.5 74 L 229.5 73 Z " /><path fill="rgb(255,255,255)" stroke="rgb(255,255,255)" stroke-width="1" opacity="0.49019607843137253" d="M 317.5 73 L 318 76.5 L 317 76.5 L 317.5 73 Z " /><path fill="rgb(255,255,255)" stroke="rgb(255,255,255)" stroke-width="1" opacity="0.49019607843137253" d="M 204.5 74 L 207 74.5 L 204.5 75 L 204.5 74 Z " /><path fill="rgb(255,255,255)" stroke="rgb(255,255,255)" stroke-width="1" opacity="0.49019607843137253" d="M 235.5 74 L 238 74.5 L 235.5 75 L 235.5 74 Z " /><path fill="rgb(255,255,255)" stroke="rgb(255,255,255)" stroke-width="1" opacity="0.49019607843137253" d="M 239.5 75 L 242 75.5 L 239.5 76 L 239.5 75 Z " /><path fill="rgb(255,255,255)" stroke="rgb(255,255,255)" stroke-width="1" opacity="0.49019607843137253" d="M 302.5 75 L 303 77.5 L 302 77.5 L 302.5 75 Z " /><path fill="rgb(255,255,255)" stroke="rgb(255,255,255)" stroke-width="1" opacity="0.49019607843137253" d="M 198.5 76 L 200 76.5 L 196.5 78 L 196.5 77 L 198.5 76 Z " /><path fill="rgb(255,255,255)" stroke="rgb(255,255,255)" stroke-width="1" opacity="0.49019607843137253" d="M 243.5 76 L 247 76.5 L 243.5 77 L 243.5 76 Z " /><path fill="rgb(255,255,255)" stroke="rgb(255,255,255)" stroke-width="1" opacity="0.49019607843137253" d="M 248.5 77 L 251 77.5 L 248.5 78 L 248.5 77 Z " /><path fill="rgb(255,255,255)" stroke="rgb(255,255,255)" stroke-width="1" opacity="0.49019607843137253" d="M 253.5 78 L 257 78.5 L 253.5 79 L 253.5 78 Z " /><path fill="rgb(255,255,255)" stroke="rgb(255,255,255)" stroke-width="1" opacity="0.49019607843137253" d="M 278.5 78 L 283 78.5 L 278.5 79 L 278.5 78 Z " /><path fill="rgb(255,255,255)" stroke="rgb(255,255,255)" stroke-width="1" opacity="0.49019607843137253" d="M 259.5 79 L 275 79.5 L 259.5 80 L 259.5 79 Z " /><path fill="rgb(255,255,255)" stroke="rgb(255,255,255)" stroke-width="1" opacity="0.49019607843137253" d="M 301.5 79 L 302 81.5 L 300.5 84 L 300 82.5 L 301.5 79 Z " /><path fill="rgb(255,255,255)" stroke="rgb(255,255,255)" stroke-width="1" opacity="0.49019607843137253" d="M 374 79 L 396 79.5 L 375 80 L 375 93 L 395.5 93 L 395.5 94 L 374 94 L 374 79 Z " /><path fill="rgb(255,255,255)" stroke="rgb(255,255,255)" stroke-width="1" opacity="0.49019607843137253" d="M 424.5 79 L 446 79 L 446 94 L 424 93.5 L 445 93 L 445 80 L 424.5 80 L 424.5 79 Z " /><path fill="rgb(255,255,255)" stroke="rgb(255,255,255)" stroke-width="1" opacity="0.49019607843137253" d="M 190.5 80 L 189.5 82 L 190.5 80 Z " /><path fill="rgb(255,255,255)" stroke="rgb(255,255,255)" stroke-width="1" opacity="0.49019607843137253" d="M 187.5 82 L 185.5 85 L 175 94.5 L 172.5 98 L 174 95.5 L 184.5 84 L 187.5 82 Z " /><path fill="rgb(255,255,255)" stroke="rgb(255,255,255)" stroke-width="1" opacity="0.49019607843137253" d="M 315.5 82 L 316 84.5 L 315 84.5 L 315.5 82 Z " /><path fill="rgb(255,255,255)" stroke="rgb(255,255,255)" stroke-width="1" opacity="0.49019607843137253" d="M 299.5 85 L 300 86.5 L 298 87.5 L 299.5 85 Z " /><path fill="rgb(255,255,255)" stroke="rgb(255,255,255)" stroke-width="1" opacity="0.49019607843137253" d="M 314.5 86 L 315 87.5 L 313.5 90 L 313 88.5 L 314.5 86 Z " /><path fill="rgb(255,255,255)" stroke="rgb(255,255,255)" stroke-width="1" opacity="0.49019607843137253" d="M 159.5 91 L 159 92.5 L 157.5 95 L 158 93.5 L 159.5 91 Z " /><path fill="rgb(255,255,255)" stroke="rgb(255,255,255)" stroke-width="1" opacity="0.49019607843137253" d="M 296.5 91 L 295.5 93 L 296.5 91 Z " /><path fill="rgb(255,255,255)" stroke="rgb(255,255,255)" stroke-width="1" opacity="0.49019607843137253" d="M 312.5 91 L 313 92.5 L 310.5 96 L 311 94.5 L 312.5 91 Z " /><path fill="rgb(255,255,255)" stroke="rgb(255,255,255)" stroke-width="1" opacity="0.49019607843137253" d="M 294.5 94 L 283.5 106 L 278.5 109 L 279.5 107 L 283.5 105 L 294.5 94 Z " /><path fill="rgb(255,255,255)" stroke="rgb(255,255,255)" stroke-width="1" opacity="0.49019607843137253" d="M 309.5 97 L 309 98.5 L 304.5 105 L 306 102.5 L 309.5 97 Z " /><path fill="rgb(255,255,255)" stroke="rgb(255,255,255)" stroke-width="1" opacity="0.49019607843137253" d="M 155.5 98 L 156 99.5 L 153.5 104 L 153 102.5 L 155.5 98 Z " /><path fill="rgb(255,255,255)" stroke="rgb(255,255,255)" stroke-width="1" opacity="0.49019607843137253" d="M 171.5 99 L 171 100.5 L 165.5 114 L 165 111.5 L 171.5 99 Z " /><path fill="rgb(255,255,255)" stroke="rgb(255,255,255)" stroke-width="1" opacity="0.49019607843137253" d="M 402 100 L 416.5 100 L 418 101.5 L 417.5 128 L 417 101 L 403 101 L 403 128.5 L 402 128.5 L 402 100 Z " /><path fill="rgb(255,255,255)" stroke="rgb(255,255,255)" stroke-width="1" opacity="0.49019607843137253" d="M 152.5 105 L 153 106.5 L 151.5 110 L 151 107.5 L 152.5 105 Z " /><path fill="rgb(255,255,255)" stroke="rgb(255,255,255)" stroke-width="1" opacity="0.49019607843137253" d="M 303.5 106 L 295.5 115 L 290.5 118 L 290.5 117 L 303.5 106 Z " /><path fill="rgb(255,255,255)" stroke="rgb(255,255,255)" stroke-width="1" opacity="0.49019607843137253" d="M 273.5 110 L 275 110.5 L 271.5 112 L 271.5 111 L 273.5 110 Z " /><path fill="rgb(255,255,255)" stroke="rgb(255,255,255)" stroke-width="1" opacity="0.49019607843137253" d="M 150.5 111 L 151 113.5 L 150 113.5 L 150.5 111 Z " /><path fill="rgb(255,255,255)" stroke="rgb(255,255,255)" stroke-width="1" opacity="0.49019607843137253" d="M 263.5 113 L 266 113.5 L 263.5 114 L 263.5 113 Z " /><path fill="rgb(255,255,255)" stroke="rgb(255,255,255)" stroke-width="1" opacity="0.49019607843137253" d="M 254 114 L 261 114.5 L 255 115 L 255 128 L 263.5 128 L 263.5 129 L 254 129 L 254 114 Z " /><path fill="rgb(255,255,255)" stroke="rgb(255,255,255)" stroke-width="1" opacity="0.49019607843137253" d="M 149.5 116 L 150 119.5 L 149 119.5 L 149.5 116 Z " /><path fill="rgb(255,255,255)" stroke="rgb(255,255,255)" stroke-width="1" opacity="0.49019607843137253" d="M 163.5 119 L 164 124.5 L 163 124.5 L 163.5 119 Z " /><path fill="rgb(255,255,255)" stroke="rgb(255,255,255)" stroke-width="1" opacity="0.49019607843137253" d="M 148.5 125 L 149 166.5 L 148 166.5 L 148.5 125 Z " /><path fill="rgb(255,255,255)" stroke="rgb(255,255,255)" stroke-width="1" opacity="0.49019607843137253" d="M 274.5 125 L 276 125.5 L 276 171.5 L 275 171.5 L 275 126.5 L 274.5 125 Z " /><path fill="rgb(255,255,255)" stroke="rgb(255,255,255)" stroke-width="1" opacity="0.49019607843137253" d="M 270.5 126 L 273 126.5 L 270.5 127 L 270.5 126 Z " /><path fill="rgb(255,255,255)" stroke="rgb(255,255,255)" stroke-width="1" opacity="0.49019607843137253" d="M 266.5 127 L 269 127.5 L 266.5 128 L 266.5 127 Z " /><path fill="rgb(255,255,255)" stroke="rgb(255,255,255)" stroke-width="1" opacity="0.49019607843137253" d="M 163.5 166 L 164 172.5 L 163 172.5 L 163.5 166 Z " /><path fill="rgb(255,255,255)" stroke="rgb(255,255,255)" stroke-width="1" opacity="0.49019607843137253" d="M 339.5 167 L 343.5 172 L 339.5 168 L 334 173.5 L 328.5 180 L 333 174.5 L 339.5 167 Z " /><path fill="rgb(255,255,255)" stroke="rgb(255,255,255)" stroke-width="1" opacity="0.49019607843137253" d="M 289.5 169 L 290 174.5 L 289 174.5 L 289.5 169 Z " /><path fill="rgb(255,255,255)" stroke="rgb(255,255,255)" stroke-width="1" opacity="0.49019607843137253" d="M 149.5 172 L 150 176.5 L 149 176.5 L 149.5 172 Z " /><path fill="rgb(255,255,255)" stroke="rgb(255,255,255)" stroke-width="1" opacity="0.49019607843137253" d="M 344.5 173 L 355 184.5 L 349 179.5 L 344.5 173 Z " /><path fill="rgb(255,255,255)" stroke="rgb(255,255,255)" stroke-width="1" opacity="0.49019607843137253" d="M 274.5 174 L 275 176.5 L 274 176.5 L 274.5 174 Z " /><path fill="rgb(255,255,255)" stroke="rgb(255,255,255)" stroke-width="1" opacity="0.49019607843137253" d="M 164.5 175 L 165 177.5 L 164 177.5 L 164.5 175 Z " /><path fill="rgb(255,255,255)" stroke="rgb(255,255,255)" stroke-width="1" opacity="0.49019607843137253" d="M 288.5 177 L 289 179.5 L 288 179.5 L 288.5 177 Z " /><path fill="rgb(255,255,255)" stroke="rgb(255,255,255)" stroke-width="1" opacity="0.49019607843137253" d="M 150.5 178 L 151 180.5 L 150 180.5 L 150.5 178 Z " /><path fill="rgb(255,255,255)" stroke="rgb(255,255,255)" stroke-width="1" opacity="0.49019607843137253" d="M 273.5 178 L 274 180.5 L 273 180.5 L 273.5 178 Z " /><path fill="rgb(255,255,255)" stroke="rgb(255,255,255)" stroke-width="1" opacity="0.49019607843137253" d="M 165.5 179 L 168 186.5 L 167 186.5 L 165.5 179 Z " /><path fill="rgb(255,255,255)" stroke="rgb(255,255,255)" stroke-width="1" opacity="0.49019607843137253" d="M 287.5 181 L 288 183.5 L 287 183.5 L 287.5 181 Z " /><path fill="rgb(255,255,255)" stroke="rgb(255,255,255)" stroke-width="1" opacity="0.49019607843137253" d="M 327.5 181 L 323 186.5 L 318.5 192 L 322 187.5 L 327.5 181 Z " /><path fill="rgb(255,255,255)" stroke="rgb(255,255,255)" stroke-width="1" opacity="0.49019607843137253" d="M 151.5 182 L 152 184.5 L 151 184.5 L 151.5 182 Z " /><path fill="rgb(255,255,255)" stroke="rgb(255,255,255)" stroke-width="1" opacity="0.49019607843137253" d="M 272.5 182 L 273 183.5 L 268.5 192 L 269 190.5 L 272.5 182 Z " /><path fill="rgb(255,255,255)" stroke="rgb(255,255,255)" stroke-width="1" opacity="0.49019607843137253" d="M 92.5 185 L 93 214 L 78 213.5 L 92 213 L 92.5 185 Z " /><path fill="rgb(255,255,255)" stroke="rgb(255,255,255)" stroke-width="1" opacity="0.49019607843137253" d="M 355.5 186 L 359.5 191 L 355.5 186 Z " /><path fill="rgb(255,255,255)" stroke="rgb(255,255,255)" stroke-width="1" opacity="0.49019607843137253" d="M 153.5 189 L 155 192.5 L 154 192.5 L 153.5 189 Z " /><path fill="rgb(255,255,255)" stroke="rgb(255,255,255)" stroke-width="1" opacity="0.49019607843137253" d="M 339.5 189 L 352 203.5 L 346 198.5 L 339.5 190 Q 336.5 190.5 337 194.5 L 338 196.5 L 337 196.5 L 336 192.5 L 339.5 189 Z " /><path fill="rgb(255,255,255)" stroke="rgb(255,255,255)" stroke-width="1" opacity="0.49019607843137253" d="M 284.5 191 L 285 192.5 L 280.5 200 L 281 198.5 L 284.5 191 Z " /><path fill="rgb(255,255,255)" stroke="rgb(255,255,255)" stroke-width="1" opacity="0.49019607843137253" d="M 170.5 192 L 171.5 194 L 170.5 192 Z " /><path fill="rgb(255,255,255)" stroke="rgb(255,255,255)" stroke-width="1" opacity="0.49019607843137253" d="M 360.5 192 L 371 203.5 L 365 198.5 L 360.5 192 Z " /><path fill="rgb(255,255,255)" stroke="rgb(255,255,255)" stroke-width="1" opacity="0.49019607843137253" d="M 267.5 193 L 267 194.5 L 264.5 198 L 266 195.5 L 267.5 193 Z " /><path fill="rgb(255,255,255)" stroke="rgb(255,255,255)" stroke-width="1" opacity="0.49019607843137253" d="M 318.5 193 L 324 199.5 L 325 203.5 L 324 203.5 L 323 199.5 L 318.5 193 Z " /><path fill="rgb(255,255,255)" stroke="rgb(255,255,255)" stroke-width="1" opacity="0.49019607843137253" d="M 172.5 195 L 173.5 197 L 172.5 195 Z " /><path fill="rgb(255,255,255)" stroke="rgb(255,255,255)" stroke-width="1" opacity="0.49019607843137253" d="M 157.5 198 L 160 201.5 L 158 200.5 L 157.5 198 Z " /><path fill="rgb(255,255,255)" stroke="rgb(255,255,255)" stroke-width="1" opacity="0.49019607843137253" d="M 174.5 198 L 179 204 L 189 211.5 L 186.5 210 L 178 203.5 L 174.5 198 Z " /><path fill="rgb(255,255,255)" stroke="rgb(255,255,255)" stroke-width="1" opacity="0.49019607843137253" d="M 338.5 198 L 339 200.5 L 338 200.5 L 338.5 198 Z " /><path fill="rgb(255,255,255)" stroke="rgb(255,255,255)" stroke-width="1" opacity="0.49019607843137253" d="M 263.5 199 L 254.5 209 L 251.5 211 L 253.5 208 L 263.5 199 Z " /><path fill="rgb(255,255,255)" stroke="rgb(255,255,255)" stroke-width="1" opacity="0.49019607843137253" d="M 279.5 201 L 279 202.5 L 268.5 216 L 270 213.5 L 279.5 201 Z " /><path fill="rgb(255,255,255)" stroke="rgb(255,255,255)" stroke-width="1" opacity="0.49019607843137253" d="M 339.5 202 L 340 210.5 L 339 210.5 L 339.5 202 Z " /><path fill="rgb(255,255,255)" stroke="rgb(255,255,255)" stroke-width="1" opacity="0.49019607843137253" d="M 160.5 203 L 161.5 205 L 160.5 203 Z " /><path fill="rgb(255,255,255)" stroke="rgb(255,255,255)" stroke-width="1" opacity="0.49019607843137253" d="M 352.5 205 L 363 216.5 L 357 211.5 L 352.5 205 Z " /><path fill="rgb(255,255,255)" stroke="rgb(255,255,255)" stroke-width="1" opacity="0.49019607843137253" d="M 371.5 205 L 375.5 210 L 371.5 205 Z " /><path fill="rgb(255,255,255)" stroke="rgb(255,255,255)" stroke-width="1" opacity="0.49019607843137253" d="M 162.5 206 L 165.5 210 L 162.5 206 Z " /><path fill="rgb(255,255,255)" stroke="rgb(255,255,255)" stroke-width="1" opacity="0.49019607843137253" d="M 324.5 209 L 325 211.5 L 323 212.5 L 324.5 209 Z " /><path fill="rgb(255,255,255)" stroke="rgb(255,255,255)" stroke-width="1" opacity="0.49019607843137253" d="M 166.5 211 L 173.5 219 L 166.5 211 Z " /><path fill="rgb(255,255,255)" stroke="rgb(255,255,255)" stroke-width="1" opacity="0.49019607843137253" d="M 249.5 211 L 248.5 213 L 249.5 211 Z " /><path fill="rgb(255,255,255)" stroke="rgb(255,255,255)" stroke-width="1" opacity="0.49019607843137253" d="M 376.5 211 L 392 228.5 L 386 223.5 L 376.5 211 Z " /><path fill="rgb(255,255,255)" stroke="rgb(255,255,255)" stroke-width="1" opacity="0.49019607843137253" d="M 190.5 212 L 199 216.5 L 197.5 217 L 191.5 214 L 190.5 212 Z " /><path fill="rgb(255,255,255)" stroke="rgb(255,255,255)" stroke-width="1" opacity="0.49019607843137253" d="M 338.5 212 L 339 214.5 L 338 214.5 L 338.5 212 Z " /><path fill="rgb(255,255,255)" stroke="rgb(255,255,255)" stroke-width="1" opacity="0.49019607843137253" d="M 246.5 213 L 245.5 215 L 244 214.5 L 246.5 213 Z " /><path fill="rgb(255,255,255)" stroke="rgb(255,255,255)" stroke-width="1" opacity="0.49019607843137253" d="M 322.5 214 L 318.5 219 L 315.5 220 L 315.5 219 L 322.5 214 Z " /><path fill="rgb(255,255,255)" stroke="rgb(255,255,255)" stroke-width="1" opacity="0.49019607843137253" d="M 239.5 216 L 241 216.5 L 237.5 218 L 237.5 217 L 239.5 216 Z " /><path fill="rgb(255,255,255)" stroke="rgb(255,255,255)" stroke-width="1" opacity="0.49019607843137253" d="M 266.5 216 L 262.5 221 L 259.5 223 L 261.5 220 L 266.5 216 Z " /><path fill="rgb(255,255,255)" stroke="rgb(255,255,255)" stroke-width="1" opacity="0.49019607843137253" d="M 337.5 216 L 338 217.5 L 330.5 228 L 332 225.5 L 337.5 216 Z " /><path fill="rgb(255,255,255)" stroke="rgb(255,255,255)" stroke-width="1" opacity="0.49019607843137253" d="M 203.5 218 L 206 218.5 L 203.5 219 L 203.5 218 Z " /><path fill="rgb(255,255,255)" stroke="rgb(255,255,255)" stroke-width="1" opacity="0.49019607843137253" d="M 233.5 218 L 236 218.5 L 233.5 219 L 233.5 218 Z " /><path fill="rgb(255,255,255)" stroke="rgb(255,255,255)" stroke-width="1" opacity="0.49019607843137253" d="M 363.5 218 L 367.5 223 L 363.5 218 Z " /><path fill="rgb(255,255,255)" stroke="rgb(255,255,255)" stroke-width="1" opacity="0.49019607843137253" d="M 175.5 219 L 177.5 222 L 175.5 219 Z " /><path fill="rgb(255,255,255)" stroke="rgb(255,255,255)" stroke-width="1" opacity="0.49019607843137253" d="M 207.5 219 L 211 219.5 L 207.5 220 L 207.5 219 Z " /><path fill="rgb(255,255,255)" stroke="rgb(255,255,255)" stroke-width="1" opacity="0.49019607843137253" d="M 228.5 219 L 232 219.5 L 228.5 220 L 228.5 219 Z " /><path fill="rgb(255,255,255)" stroke="rgb(255,255,255)" stroke-width="1" opacity="0.49019607843137253" d="M 50.5 220 L 72 220 L 72 234.5 L 71 234.5 L 71 221 L 50.5 221 L 50.5 220 Z " /><path fill="rgb(255,255,255)" stroke="rgb(255,255,255)" stroke-width="1" opacity="0.49019607843137253" d="M 99 220 L 121 220 L 121 234.5 L 120 234.5 L 120 221 L 100 221 L 99.5 235 L 99 220 Z " /><path fill="rgb(255,255,255)" stroke="rgb(255,255,255)" stroke-width="1" opacity="0.49019607843137253" d="M 212.5 220 L 226 220.5 L 212.5 221 L 212.5 220 Z " /><path fill="rgb(255,255,255)" stroke="rgb(255,255,255)" stroke-width="1" opacity="0.49019607843137253" d="M 311.5 220 L 314 220.5 L 311.5 221 L 311.5 220 Z " /><path fill="rgb(255,255,255)" stroke="rgb(255,255,255)" stroke-width="1" opacity="0.49019607843137253" d="M 307 221 L 310 221.5 L 308 222 L 307.5 224 L 307 221 Z " /><path fill="rgb(255,255,255)" stroke="rgb(255,255,255)" stroke-width="1" opacity="0.49019607843137253" d="M 179.5 222 L 191 228.5 L 189.5 229 L 180.5 224 L 179.5 222 Z " /><path fill="rgb(255,255,255)" stroke="rgb(255,255,255)" stroke-width="1" opacity="0.49019607843137253" d="M 257.5 223 L 256.5 225 L 254.5 226 L 255.5 224 L 257.5 223 Z " /><path fill="rgb(255,255,255)" stroke="rgb(255,255,255)" stroke-width="1" opacity="0.49019607843137253" d="M 368.5 224 L 379 235.5 L 373 230.5 L 368.5 224 Z " /><path fill="rgb(255,255,255)" stroke="rgb(255,255,255)" stroke-width="1" opacity="0.49019607843137253" d="M 308.5 225 L 310 228.5 L 309 228.5 L 308.5 225 Z " /><path fill="rgb(255,255,255)" stroke="rgb(255,255,255)" stroke-width="1" opacity="0.49019607843137253" d="M 252.5 226 L 251.5 228 L 250 227.5 L 252.5 226 Z " /><path fill="rgb(255,255,255)" stroke="rgb(255,255,255)" stroke-width="1" opacity="0.49019607843137253" d="M 248.5 228 L 248 229.5 L 248 248 L 270.5 248 L 280.5 237 L 283 238.5 L 281.5 238 L 276 242.5 L 270.5 249 L 247 249 L 247 229.5 L 248.5 228 Z " /><path fill="rgb(255,255,255)" stroke="rgb(255,255,255)" stroke-width="1" opacity="0.49019607843137253" d="M 328.5 228 L 326 231.5 L 325.5 238 L 325 230 L 328.5 228 Z " /><path fill="rgb(255,255,255)" stroke="rgb(255,255,255)" stroke-width="1" opacity="0.49019607843137253" d="M 310.5 230 L 311 232.5 L 310 232.5 L 310.5 230 Z " /><path fill="rgb(255,255,255)" stroke="rgb(255,255,255)" stroke-width="1" opacity="0.49019607843137253" d="M 392.5 230 L 408 247.5 L 402 242.5 L 392.5 230 Z " /><path fill="rgb(255,255,255)" stroke="rgb(255,255,255)" stroke-width="1" opacity="0.49019607843137253" d="M 205 233 L 207 233.5 L 206 234.5 L 205.5 257 L 205 233 Z " /><path fill="rgb(255,255,255)" stroke="rgb(255,255,255)" stroke-width="1" opacity="0.49019607843137253" d="M 232.5 233 L 234 233.5 L 234 255.5 L 233 255.5 L 233 234.5 L 232.5 233 Z " /><path fill="rgb(255,255,255)" stroke="rgb(255,255,255)" stroke-width="1" opacity="0.49019607843137253" d="M 209.5 234 L 219 234.5 L 209.5 235 L 209.5 234 Z " /><path fill="rgb(255,255,255)" stroke="rgb(255,255,255)" stroke-width="1" opacity="0.49019607843137253" d="M 220.5 234 L 230 234.5 L 220.5 235 L 220.5 234 Z " /><path fill="rgb(255,255,255)" stroke="rgb(255,255,255)" stroke-width="1" opacity="0.49019607843137253" d="M 346 234 L 361 234 L 361 262.5 L 360 262.5 L 360 235 L 347 235 L 346.5 263 L 346 234 Z " /><path fill="rgb(255,255,255)" stroke="rgb(255,255,255)" stroke-width="1" opacity="0.49019607843137253" d="M 310.5 237 L 311 239.5 L 304.5 247 L 309 241.5 L 310.5 237 Z " /><path fill="rgb(255,255,255)" stroke="rgb(255,255,255)" stroke-width="1" opacity="0.49019607843137253" d="M 379.5 237 L 383.5 242 L 379.5 237 Z " /><path fill="rgb(255,255,255)" stroke="rgb(255,255,255)" stroke-width="1" opacity="0.49019607843137253" d="M 283.5 240 L 289.5 247 L 283.5 240 Z " /><path fill="rgb(255,255,255)" stroke="rgb(255,255,255)" stroke-width="1" opacity="0.49019607843137253" d="M 324.5 240 L 325 242.5 L 324 242.5 L 324.5 240 Z " /><path fill="rgb(255,255,255)" stroke="rgb(255,255,255)" stroke-width="1" opacity="0.49019607843137253" d="M 78.5 241 L 93 241 L 93 269.5 L 92 269.5 L 92 242 L 78.5 242 L 78.5 241 Z " /><path fill="rgb(255,255,255)" stroke="rgb(255,255,255)" stroke-width="1" opacity="0.49019607843137253" d="M 384.5 243 L 400 260.5 L 394 255.5 L 384.5 243 Z " /><path fill="rgb(255,255,255)" stroke="rgb(255,255,255)" stroke-width="1" opacity="0.49019607843137253" d="M 323.5 244 L 324 245.5 L 315.5 257 L 319 252.5 L 323.5 244 Z " /><path fill="rgb(255,255,255)" stroke="rgb(255,255,255)" stroke-width="1" opacity="0.49019607843137253" d="M 291.5 247 L 301 248.5 L 293.5 249 L 291.5 247 Z " /><path fill="rgb(255,255,255)" stroke="rgb(255,255,255)" stroke-width="1" opacity="0.49019607843137253" d="M 408.5 249 L 424 266.5 L 418 261.5 L 408.5 249 Z " /><path fill="rgb(255,255,255)" stroke="rgb(255,255,255)" stroke-width="1" opacity="0.49019607843137253" d="M 186.5 250 L 190 250.5 L 186.5 251 L 186.5 250 Z " /><path fill="rgb(255,255,255)" stroke="rgb(255,255,255)" stroke-width="1" opacity="0.49019607843137253" d="M 180.5 251 L 184 251.5 L 180.5 252 L 180.5 251 Z " /><path fill="rgb(255,255,255)" stroke="rgb(255,255,255)" stroke-width="1" opacity="0.49019607843137253" d="M 175.5 252 L 179 252.5 L 175.5 253 L 175.5 252 Z " /><path fill="rgb(255,255,255)" stroke="rgb(255,255,255)" stroke-width="1" opacity="0.49019607843137253" d="M 169.5 253 L 173 253.5 L 169.5 254 L 169.5 253 Z " /><path fill="rgb(255,255,255)" stroke="rgb(255,255,255)" stroke-width="1" opacity="0.49019607843137253" d="M 164.5 254 L 168 254.5 L 164.5 255 L 164.5 254 Z " /><path fill="rgb(255,255,255)" stroke="rgb(255,255,255)" stroke-width="1" opacity="0.49019607843137253" d="M 159.5 255 L 162 255.5 L 159.5 256 L 159.5 255 Z " /><path fill="rgb(255,255,255)" stroke="rgb(255,255,255)" stroke-width="1" opacity="0.49019607843137253" d="M 155.5 256 L 158 256.5 L 155.5 257 L 155.5 256 Z " /><path fill="rgb(255,255,255)" stroke="rgb(255,255,255)" stroke-width="1" opacity="0.49019607843137253" d="M 232.5 257 L 233 258.5 L 229.5 261 L 230.5 259 Q 233 259.7 232.5 257 Z " /><path fill="rgb(255,255,255)" stroke="rgb(255,255,255)" stroke-width="1" opacity="0.49019607843137253" d="M 313.5 257 L 312.5 259 L 313.5 257 Z " /><path fill="rgb(255,255,255)" stroke="rgb(255,255,255)" stroke-width="1" opacity="0.49019607843137253" d="M 149.5 258 L 151 258.5 L 140.5 264 L 141.5 262 L 149.5 258 Z " /><path fill="rgb(255,255,255)" stroke="rgb(255,255,255)" stroke-width="1" opacity="0.49019607843137253" d="M 206.5 258 L 207.5 260 L 206.5 258 Z " /><path fill="rgb(255,255,255)" stroke="rgb(255,255,255)" stroke-width="1" opacity="0.49019607843137253" d="M 281.5 258 L 284 259.5 L 282.5 259 L 277.5 263 L 281.5 258 Z " /><path fill="rgb(255,255,255)" stroke="rgb(255,255,255)" stroke-width="1" opacity="0.49019607843137253" d="M 310.5 259 L 309.5 261 L 308 260.5 L 310.5 259 Z " /><path fill="rgb(255,255,255)" stroke="rgb(255,255,255)" stroke-width="1" opacity="0.49019607843137253" d="M 285.5 260 L 290 261.5 L 287.5 262 L 285.5 260 Z " /><path fill="rgb(255,255,255)" stroke="rgb(255,255,255)" stroke-width="1" opacity="0.49019607843137253" d="M 214.5 262 L 219 262.5 L 214.5 263 L 214.5 262 Z " /><path fill="rgb(255,255,255)" stroke="rgb(255,255,255)" stroke-width="1" opacity="0.49019607843137253" d="M 220.5 262 L 225 262.5 L 220.5 263 L 220.5 262 Z " /><path fill="rgb(255,255,255)" stroke="rgb(255,255,255)" stroke-width="1" opacity="0.49019607843137253" d="M 291.5 262 L 295 262.5 L 291.5 263 L 291.5 262 Z " /><path fill="rgb(255,255,255)" stroke="rgb(255,255,255)" stroke-width="1" opacity="0.49019607843137253" d="M 300.5 262 L 304 262.5 L 300.5 263 L 300.5 262 Z " /><path fill="rgb(255,255,255)" stroke="rgb(255,255,255)" stroke-width="1" opacity="0.49019607843137253" d="M 400.5 262 L 415 278.5 L 415 280.5 L 400 297.5 L 402.5 301 L 399 296.5 L 411 284.5 L 414 278.5 L 400.5 262 Z " /><path fill="rgb(255,255,255)" stroke="rgb(255,255,255)" stroke-width="1" opacity="0.49019607843137253" d="M 258.5 263 L 254.5 268 L 258.5 263 Z " /><path fill="rgb(255,255,255)" stroke="rgb(255,255,255)" stroke-width="1" opacity="0.49019607843137253" d="M 138.5 264 L 137.5 266 L 138.5 264 Z " /><path fill="rgb(255,255,255)" stroke="rgb(255,255,255)" stroke-width="1" opacity="0.49019607843137253" d="M 189.5 264 Q 194.9 262.1 194 265.5 Q 198 272 206 274.5 L 204.5 275 Q 196.7 271.8 192.5 265 L 189.5 265 L 189.5 264 Z " /><path fill="rgb(255,255,255)" stroke="rgb(255,255,255)" stroke-width="1" opacity="0.49019607843137253" d="M 245.5 264 L 245 265.5 L 239.5 272 L 237.5 273 L 238.5 271 L 244 266.5 L 245.5 264 Z " /><path fill="rgb(255,255,255)" stroke="rgb(255,255,255)" stroke-width="1" opacity="0.49019607843137253" d="M 276.5 264 L 272 269.5 L 264.5 279 L 266 276.5 L 276.5 264 Z " /><path fill="rgb(255,255,255)" stroke="rgb(255,255,255)" stroke-width="1" opacity="0.49019607843137253" d="M 184.5 265 L 188 265.5 L 184.5 266 L 184.5 265 Z " /><path fill="rgb(255,255,255)" stroke="rgb(255,255,255)" stroke-width="1" opacity="0.49019607843137253" d="M 135.5 266 L 125.5 277 L 135.5 266 Z " /><path fill="rgb(255,255,255)" stroke="rgb(255,255,255)" stroke-width="1" opacity="0.49019607843137253" d="M 178.5 266 L 182 266.5 L 178.5 267 L 178.5 266 Z " /><path fill="rgb(255,255,255)" stroke="rgb(255,255,255)" stroke-width="1" opacity="0.49019607843137253" d="M 173.5 267 L 177 267.5 L 173.5 268 L 173.5 267 Z " /><path fill="rgb(255,255,255)" stroke="rgb(255,255,255)" stroke-width="1" opacity="0.49019607843137253" d="M 168.5 268 L 171 268.5 L 168.5 269 L 168.5 268 Z " /><path fill="rgb(255,255,255)" stroke="rgb(255,255,255)" stroke-width="1" opacity="0.49019607843137253" d="M 424.5 268 L 435 279.5 L 429 274.5 L 424.5 268 Z " /><path fill="rgb(255,255,255)" stroke="rgb(255,255,255)" stroke-width="1" opacity="0.49019607843137253" d="M 163.5 269 L 166 269.5 L 163.5 270 L 163.5 269 Z " /><path fill="rgb(255,255,255)" stroke="rgb(255,255,255)" stroke-width="1" opacity="0.49019607843137253" d="M 253.5 269 L 249 274.5 L 243.5 281 L 248 275.5 L 253.5 269 Z " /><path fill="rgb(255,255,255)" stroke="rgb(255,255,255)" stroke-width="1" opacity="0.49019607843137253" d="M 159.5 270 L 162 270.5 L 159.5 271 L 159.5 270 Z " /><path fill="rgb(255,255,255)" stroke="rgb(255,255,255)" stroke-width="1" opacity="0.49019607843137253" d="M 148.5 275 L 147.5 277 L 143.5 280 L 146.5 276 L 148.5 275 Z " /><path fill="rgb(255,255,255)" stroke="rgb(255,255,255)" stroke-width="1" opacity="0.49019607843137253" d="M 328.5 275 Q 330.8 274.3 330 276.5 L 332 280.5 L 331 280.5 L 328.5 275 Z " /><path fill="rgb(255,255,255)" stroke="rgb(255,255,255)" stroke-width="1" opacity="0.49019607843137253" d="M 210.5 276 L 214 276.5 L 210.5 277 L 210.5 276 Z " /><path fill="rgb(255,255,255)" stroke="rgb(255,255,255)" stroke-width="1" opacity="0.49019607843137253" d="M 225.5 276 L 229 276.5 L 225.5 277 L 225.5 276 Z " /><path fill="rgb(255,255,255)" stroke="rgb(255,255,255)" stroke-width="1" opacity="0.49019607843137253" d="M 367.5 277 L 368 298 L 381 298 L 381 277.5 L 382 277.5 L 382 299 L 367 299 L 367.5 277 Z " /><path fill="rgb(255,255,255)" stroke="rgb(255,255,255)" stroke-width="1" opacity="0.49019607843137253" d="M 124.5 278 L 123 280.5 L 121.5 283 L 122 281.5 L 124.5 278 Z " /><path fill="rgb(255,255,255)" stroke="rgb(255,255,255)" stroke-width="1" opacity="0.49019607843137253" d="M 321.5 278 L 323 278.5 L 317 281 L 317 283.5 L 328 306 L 330 306.5 L 328.5 307 L 316 281.5 L 321.5 278 Z " /><path fill="rgb(255,255,255)" stroke="rgb(255,255,255)" stroke-width="1" opacity="0.49019607843137253" d="M 141.5 280 L 138.5 284 L 141.5 280 Z " /><path fill="rgb(255,255,255)" stroke="rgb(255,255,255)" stroke-width="1" opacity="0.49019607843137253" d="M 264.5 280 L 279.5 297 L 288 303.5 L 285.5 302 L 270 288.5 L 264.5 280 Z " /><path fill="rgb(255,255,255)" stroke="rgb(255,255,255)" stroke-width="1" opacity="0.49019607843137253" d="M 435.5 281 L 439.5 286 L 435.5 281 Z " /><path fill="rgb(255,255,255)" stroke="rgb(255,255,255)" stroke-width="1" opacity="0.49019607843137253" d="M 242.5 282 L 238 287.5 L 232.5 294 L 237 288.5 L 242.5 282 Z " /><path fill="rgb(255,255,255)" stroke="rgb(255,255,255)" stroke-width="1" opacity="0.49019607843137253" d="M 332.5 282 L 339 294.5 L 338 294.5 L 332.5 282 Z " /><path fill="rgb(255,255,255)" stroke="rgb(255,255,255)" stroke-width="1" opacity="0.49019607843137253" d="M 137.5 285 L 135.5 288 L 137.5 285 Z " /><path fill="rgb(255,255,255)" stroke="rgb(255,255,255)" stroke-width="1" opacity="0.49019607843137253" d="M 119.5 286 L 119 287.5 L 118.5 289 L 118 287.5 L 119.5 286 Z " /><path fill="rgb(255,255,255)" stroke="rgb(255,255,255)" stroke-width="1" opacity="0.49019607843137253" d="M 440.5 287 L 451 298.5 L 445 293.5 L 440.5 287 Z " /><path fill="rgb(255,255,255)" stroke="rgb(255,255,255)" stroke-width="1" opacity="0.49019607843137253" d="M 134.5 289 L 134 290.5 L 132.5 293 L 133 291.5 L 134.5 289 Z " /><path fill="rgb(255,255,255)" stroke="rgb(255,255,255)" stroke-width="1" opacity="0.49019607843137253" d="M 117.5 290 L 118 291.5 L 115.5 298 L 115 295.5 L 117.5 290 Z " /><path fill="rgb(255,255,255)" stroke="rgb(255,255,255)" stroke-width="1" opacity="0.49019607843137253" d="M 254.5 290 Q 261.2 301.8 272 309.5 L 257 295.5 L 254.5 292 L 251.5 294 L 254.5 290 Z " /><path fill="rgb(255,255,255)" stroke="rgb(255,255,255)" stroke-width="1" opacity="0.49019607843137253" d="M 424.5 290 L 432 298.5 L 426 293.5 L 424.5 291 L 419.5 297 L 423 292.5 L 424.5 290 Z " /><path fill="rgb(255,255,255)" stroke="rgb(255,255,255)" stroke-width="1" opacity="0.49019607843137253" d="M 131.5 294 L 132 295.5 L 130.5 298 L 130 296.5 L 131.5 294 Z " /><path fill="rgb(255,255,255)" stroke="rgb(255,255,255)" stroke-width="1" opacity="0.49019607843137253" d="M 231.5 295 L 227.5 300 L 231.5 295 Z " /><path fill="rgb(255,255,255)" stroke="rgb(255,255,255)" stroke-width="1" opacity="0.49019607843137253" d="M 250.5 295 L 246 300.5 L 245.5 302 L 245 300.5 L 250.5 295 Z " /><path fill="rgb(255,255,255)" stroke="rgb(255,255,255)" stroke-width="1" opacity="0.49019607843137253" d="M 418.5 298 L 409.5 308 L 403 302.5 L 408.5 307 L 418.5 298 Z " /><path fill="rgb(255,255,255)" stroke="rgb(255,255,255)" stroke-width="1" opacity="0.49019607843137253" d="M 114.5 299 L 115 302.5 L 114 302.5 L 114.5 299 Z " /><path fill="rgb(255,255,255)" stroke="rgb(255,255,255)" stroke-width="1" opacity="0.49019607843137253" d="M 341.5 300 L 340.5 302 L 331.5 306 L 331.5 305 L 341.5 300 Z " /><path fill="rgb(255,255,255)" stroke="rgb(255,255,255)" stroke-width="1" opacity="0.49019607843137253" d="M 432.5 300 Q 435.3 301.3 433 302.5 L 427.5 309 L 432 303.5 L 433 301.5 L 432.5 300 Z " /><path fill="rgb(255,255,255)" stroke="rgb(255,255,255)" stroke-width="1" opacity="0.49019607843137253" d="M 451.5 300 L 452 301.5 L 445.5 310 L 447 307.5 L 451.5 300 Z " /><path fill="rgb(255,255,255)" stroke="rgb(255,255,255)" stroke-width="1" opacity="0.49019607843137253" d="M 128.5 302 L 129 305.5 L 128 305.5 L 128.5 302 Z " /><path fill="rgb(255,255,255)" stroke="rgb(255,255,255)" stroke-width="1" opacity="0.49019607843137253" d="M 228.5 303 L 234 309.5 L 230 306.5 L 228.5 303 Z " /><path fill="rgb(255,255,255)" stroke="rgb(255,255,255)" stroke-width="1" opacity="0.49019607843137253" d="M 246.5 303 L 258 315.5 L 252 310.5 L 246.5 303 Z " /><path fill="rgb(255,255,255)" stroke="rgb(255,255,255)" stroke-width="1" opacity="0.49019607843137253" d="M 289.5 304 L 299 309 L 299 311.5 L 292.5 323 L 284 318.5 L 285.5 319 L 293 322 L 298 310.5 L 290.5 306 L 289.5 304 Z " /><path fill="rgb(255,255,255)" stroke="rgb(255,255,255)" stroke-width="1" opacity="0.49019607843137253" d="M 113.5 305 L 114 318.5 L 113 318.5 L 113.5 305 Z " /><path fill="rgb(255,255,255)" stroke="rgb(255,255,255)" stroke-width="1" opacity="0.49019607843137253" d="M 127.5 308 L 128 313.5 L 127 313.5 L 127.5 308 Z " /><path fill="rgb(255,255,255)" stroke="rgb(255,255,255)" stroke-width="1" opacity="0.49019607843137253" d="M 273.5 310 L 280 315.5 L 277.5 314 L 273.5 310 Z " /><path fill="rgb(255,255,255)" stroke="rgb(255,255,255)" stroke-width="1" opacity="0.49019607843137253" d="M 426.5 310 L 419.5 318 L 407.5 327 L 409.5 324 L 413.5 322 L 426.5 310 Z " /><path fill="rgb(255,255,255)" stroke="rgb(255,255,255)" stroke-width="1" opacity="0.49019607843137253" d="M 234.5 311 L 238.5 316 L 234.5 311 Z " /><path fill="rgb(255,255,255)" stroke="rgb(255,255,255)" stroke-width="1" opacity="0.49019607843137253" d="M 444.5 311 L 441 315.5 L 427.5 330 L 410.5 342 L 411.5 340 Q 428.2 330.7 440 316.5 L 444.5 311 Z " /><path fill="rgb(255,255,255)" stroke="rgb(255,255,255)" stroke-width="1" opacity="0.49019607843137253" d="M 259.5 316 L 272 326.5 L 269.5 325 Q 262.4 321.8 259.5 316 Z " /><path fill="rgb(255,255,255)" stroke="rgb(255,255,255)" stroke-width="1" opacity="0.49019607843137253" d="M 281.5 316 L 282.5 318 L 281.5 316 Z " /><path fill="rgb(255,255,255)" stroke="rgb(255,255,255)" stroke-width="1" opacity="0.49019607843137253" d="M 239.5 317 L 257 333.5 L 251.5 329 L 239.5 317 Z " /><path fill="rgb(255,255,255)" stroke="rgb(255,255,255)" stroke-width="1" opacity="0.49019607843137253" d="M 128.5 318 L 129 321.5 L 128 321.5 L 128.5 318 Z " /><path fill="rgb(255,255,255)" stroke="rgb(255,255,255)" stroke-width="1" opacity="0.49019607843137253" d="M 383.5 319 L 393 319.5 L 383.5 320 L 383.5 319 Z " /><path fill="rgb(255,255,255)" stroke="rgb(255,255,255)" stroke-width="1" opacity="0.49019607843137253" d="M 378.5 320 L 381 320.5 L 378.5 321 L 378.5 320 Z " /><path fill="rgb(255,255,255)" stroke="rgb(255,255,255)" stroke-width="1" opacity="0.49019607843137253" d="M 114.5 321 L 115 325.5 L 114 325.5 L 114.5 321 Z " /><path fill="rgb(255,255,255)" stroke="rgb(255,255,255)" stroke-width="1" opacity="0.49019607843137253" d="M 374.5 321 L 377 321.5 L 372.5 323 L 372.5 322 L 374.5 321 Z " /><path fill="rgb(255,255,255)" stroke="rgb(255,255,255)" stroke-width="1" opacity="0.49019607843137253" d="M 397.5 321 Q 403.6 322.4 406 327.5 L 400.5 323 Q 396.8 322.8 397.5 321 Z " /><path fill="rgb(255,255,255)" stroke="rgb(255,255,255)" stroke-width="1" opacity="0.49019607843137253" d="M 129.5 323 L 130 325.5 L 129 325.5 L 129.5 323 Z " /><path fill="rgb(255,255,255)" stroke="rgb(255,255,255)" stroke-width="1" opacity="0.49019607843137253" d="M 370.5 323 L 369.5 325 Q 362 328 358 334.5 L 356.5 337 L 357 335.5 L 365.5 326 L 370.5 323 Z " /><path fill="rgb(255,255,255)" stroke="rgb(255,255,255)" stroke-width="1" opacity="0.49019607843137253" d="M 115.5 327 L 117 332.5 L 116 332.5 L 115.5 327 Z " /><path fill="rgb(255,255,255)" stroke="rgb(255,255,255)" stroke-width="1" opacity="0.49019607843137253" d="M 273.5 327 L 274.5 329 L 273.5 327 Z " /><path fill="rgb(255,255,255)" stroke="rgb(255,255,255)" stroke-width="1" opacity="0.49019607843137253" d="M 276.5 329 L 288 335.5 L 286.5 336 L 277.5 331 L 276.5 329 Z " /><path fill="rgb(255,255,255)" stroke="rgb(255,255,255)" stroke-width="1" opacity="0.49019607843137253" d="M 132.5 332 L 134 334.5 L 132 333.5 L 132.5 332 Z " /><path fill="rgb(255,255,255)" stroke="rgb(255,255,255)" stroke-width="1" opacity="0.49019607843137253" d="M 192.5 332 L 193.5 334 L 192.5 332 Z " /><path fill="rgb(255,255,255)" stroke="rgb(255,255,255)" stroke-width="1" opacity="0.49019607843137253" d="M 188.5 333 L 187.5 335 L 188.5 333 Z " /><path fill="rgb(255,255,255)" stroke="rgb(255,255,255)" stroke-width="1" opacity="0.49019607843137253" d="M 303.5 333 L 313 333.5 L 303.5 334 L 303.5 333 Z " /><path fill="rgb(255,255,255)" stroke="rgb(255,255,255)" stroke-width="1" opacity="0.49019607843137253" d="M 384.5 333 L 390 333.5 L 384.5 334 L 384.5 333 Z " /><path fill="rgb(255,255,255)" stroke="rgb(255,255,255)" stroke-width="1" opacity="0.49019607843137253" d="M 195.5 334 L 216 348.5 L 213.5 347 L 197.5 337 L 195.5 334 Z " /><path fill="rgb(255,255,255)" stroke="rgb(255,255,255)" stroke-width="1" opacity="0.49019607843137253" d="M 258.5 334 L 264 338.5 L 261.5 337 L 258.5 334 Z " /><path fill="rgb(255,255,255)" stroke="rgb(255,255,255)" stroke-width="1" opacity="0.49019607843137253" d="M 391.5 334 L 395 336.5 L 392.5 335 L 391.5 334 Z " /><path fill="rgb(255,255,255)" stroke="rgb(255,255,255)" stroke-width="1" opacity="0.49019607843137253" d="M 317.5 335 L 327 341.5 L 330 346.5 L 328 345.5 L 324.5 340 L 317.5 336 L 317.5 335 Z " /><path fill="rgb(255,255,255)" stroke="rgb(255,255,255)" stroke-width="1" opacity="0.49019607843137253" d="M 378.5 335 L 380 335.5 L 375.5 338 L 376.5 336 L 378.5 335 Z " /><path fill="rgb(255,255,255)" stroke="rgb(255,255,255)" stroke-width="1" opacity="0.49019607843137253" d="M 118.5 336 L 120 339.5 L 119 339.5 L 118.5 336 Z " /><path fill="rgb(255,255,255)" stroke="rgb(255,255,255)" stroke-width="1" opacity="0.49019607843137253" d="M 186.5 336 L 185.5 338 L 186.5 336 Z " /><path fill="rgb(255,255,255)" stroke="rgb(255,255,255)" stroke-width="1" opacity="0.49019607843137253" d="M 135.5 338 L 146.5 350 L 150 352.5 L 147.5 351 L 137 341.5 L 135.5 338 Z " /><path fill="rgb(255,255,255)" stroke="rgb(255,255,255)" stroke-width="1" opacity="0.49019607843137253" d="M 373.5 338 L 369.5 343 L 373.5 338 Z " /><path fill="rgb(255,255,255)" stroke="rgb(255,255,255)" stroke-width="1" opacity="0.49019607843137253" d="M 395.5 338 L 396 342.5 L 395 342.5 L 395.5 338 Z " /><path fill="rgb(255,255,255)" stroke="rgb(255,255,255)" stroke-width="1" opacity="0.49019607843137253" d="M 184.5 339 L 183.5 341 L 184.5 339 Z " /><path fill="rgb(255,255,255)" stroke="rgb(255,255,255)" stroke-width="1" opacity="0.49019607843137253" d="M 265.5 339 L 269 341.5 L 267.5 341 L 265.5 339 Z " /><path fill="rgb(255,255,255)" stroke="rgb(255,255,255)" stroke-width="1" opacity="0.49019607843137253" d="M 120.5 341 L 121 460 L 133.5 460 L 134 459.5 L 134 359.5 L 135.5 359 L 138.5 363 L 135 360.5 L 135 460.5 L 134.5 461 L 120 461 L 120.5 341 Z " /><path fill="rgb(255,255,255)" stroke="rgb(255,255,255)" stroke-width="1" opacity="0.49019607843137253" d="M 182.5 342 L 183 344 L 214 364.5 L 211.5 363 L 182 343.5 L 182.5 342 Z " /><path fill="rgb(255,255,255)" stroke="rgb(255,255,255)" stroke-width="1" opacity="0.49019607843137253" d="M 270.5 342 L 273 343 Q 274 346 271 345 L 270.5 342 Z " /><path fill="rgb(255,255,255)" stroke="rgb(255,255,255)" stroke-width="1" opacity="0.49019607843137253" d="M 353.5 343 L 354 347 L 352 346.5 L 353.5 343 Z " /><path fill="rgb(255,255,255)" stroke="rgb(255,255,255)" stroke-width="1" opacity="0.49019607843137253" d="M 409.5 343 L 410 346.5 L 408.5 349 L 408 347.5 L 409.5 343 Z " /><path fill="rgb(255,255,255)" stroke="rgb(255,255,255)" stroke-width="1" opacity="0.49019607843137253" d="M 394.5 344 L 392.5 347 L 384.5 351 L 385.5 349 L 394.5 344 Z " /><path fill="rgb(255,255,255)" stroke="rgb(255,255,255)" stroke-width="1" opacity="0.49019607843137253" d="M 367.5 346 L 368 348.5 L 367 348.5 L 367.5 346 Z " /><path fill="rgb(255,255,255)" stroke="rgb(255,255,255)" stroke-width="1" opacity="0.49019607843137253" d="M 333.5 347 L 350 347.5 L 333.5 348 L 333.5 347 Z " /><path fill="rgb(255,255,255)" stroke="rgb(255,255,255)" stroke-width="1" opacity="0.49019607843137253" d="M 303.5 348 L 306 348.5 L 303.5 349 L 303.5 348 Z " /><path fill="rgb(255,255,255)" stroke="rgb(255,255,255)" stroke-width="1" opacity="0.49019607843137253" d="M 310.5 348 L 317 352.5 L 318 355.5 L 317 355.5 L 313.5 350 Q 309.7 349.8 310.5 348 Z " /><path fill="rgb(255,255,255)" stroke="rgb(255,255,255)" stroke-width="1" opacity="0.49019607843137253" d="M 217.5 349 L 218.5 351 L 217.5 349 Z " /><path fill="rgb(255,255,255)" stroke="rgb(255,255,255)" stroke-width="1" opacity="0.49019607843137253" d="M 368.5 350 L 370.5 353 L 377 354.5 L 372.5 355 L 368 351.5 L 368.5 350 Z " /><path fill="rgb(255,255,255)" stroke="rgb(255,255,255)" stroke-width="1" opacity="0.49019607843137253" d="M 220.5 351 L 221.5 353 L 220.5 351 Z " /><path fill="rgb(255,255,255)" stroke="rgb(255,255,255)" stroke-width="1" opacity="0.49019607843137253" d="M 250.5 351 L 252 351.5 L 242.5 355 L 242.5 354 L 250.5 351 Z " /><path fill="rgb(255,255,255)" stroke="rgb(255,255,255)" stroke-width="1" opacity="0.49019607843137253" d="M 406.5 352 L 400.5 359 L 398.5 360 L 399.5 358 L 406.5 352 Z " /><path fill="rgb(255,255,255)" stroke="rgb(255,255,255)" stroke-width="1" opacity="0.49019607843137253" d="M 151.5 353 L 157 357.5 L 154.5 356 L 151.5 353 Z " /><path fill="rgb(255,255,255)" stroke="rgb(255,255,255)" stroke-width="1" opacity="0.49019607843137253" d="M 223.5 353 L 224.5 355 L 223.5 353 Z " /><path fill="rgb(255,255,255)" stroke="rgb(255,255,255)" stroke-width="1" opacity="0.49019607843137253" d="M 288.5 353 L 290 353.5 L 280.5 357 L 280.5 356 L 288.5 353 Z " /><path fill="rgb(255,255,255)" stroke="rgb(255,255,255)" stroke-width="1" opacity="0.49019607843137253" d="M 226.5 355 L 232 358.5 L 230.5 359 L 226.5 355 Z " /><path fill="rgb(255,255,255)" stroke="rgb(255,255,255)" stroke-width="1" opacity="0.49019607843137253" d="M 158.5 358 L 164 362.5 L 161.5 361 L 158.5 358 Z " /><path fill="rgb(255,255,255)" stroke="rgb(255,255,255)" stroke-width="1" opacity="0.49019607843137253" d="M 317.5 360 L 318 362.5 L 316 366 L 312.5 368 L 317 362.5 L 317.5 360 Z " /><path fill="rgb(255,255,255)" stroke="rgb(255,255,255)" stroke-width="1" opacity="0.49019607843137253" d="M 332.5 361 L 339 361.5 L 332.5 362 L 332.5 361 Z " /><path fill="rgb(255,255,255)" stroke="rgb(255,255,255)" stroke-width="1" opacity="0.49019607843137253" d="M 346.5 361 L 354 361.5 L 346.5 362 L 346.5 361 Z " /><path fill="rgb(255,255,255)" stroke="rgb(255,255,255)" stroke-width="1" opacity="0.49019607843137253" d="M 358.5 361 L 365 366.5 L 363.5 366 L 358.5 361 Z " /><path fill="rgb(255,255,255)" stroke="rgb(255,255,255)" stroke-width="1" opacity="0.49019607843137253" d="M 140.5 363 L 149 369.5 L 146.5 368 Q 141.5 366.5 140.5 363 Z " /><path fill="rgb(255,255,255)" stroke="rgb(255,255,255)" stroke-width="1" opacity="0.49019607843137253" d="M 165.5 363 L 171 367.5 L 168.5 366 L 165.5 363 Z " /><path fill="rgb(255,255,255)" stroke="rgb(255,255,255)" stroke-width="1" opacity="0.49019607843137253" d="M 259.5 363 L 261 363.5 L 248.5 368 L 248.5 367 L 259.5 363 Z " /><path fill="rgb(255,255,255)" stroke="rgb(255,255,255)" stroke-width="1" opacity="0.49019607843137253" d="M 331.5 363 L 332 365.5 L 331 365.5 L 331.5 363 Z " /><path fill="rgb(255,255,255)" stroke="rgb(255,255,255)" stroke-width="1" opacity="0.49019607843137253" d="M 215.5 365 L 216.5 367 L 215.5 365 Z " /><path fill="rgb(255,255,255)" stroke="rgb(255,255,255)" stroke-width="1" opacity="0.49019607843137253" d="M 218.5 367 L 219.5 369 L 218.5 367 Z " /><path fill="rgb(255,255,255)" stroke="rgb(255,255,255)" stroke-width="1" opacity="0.49019607843137253" d="M 330.5 367 L 331 368.5 L 322.5 379 L 320.5 380 L 321.5 378 L 327 373.5 L 330.5 367 Z " /><path fill="rgb(255,255,255)" stroke="rgb(255,255,255)" stroke-width="1" opacity="0.49019607843137253" d="M 366.5 367 L 372 368.5 L 368.5 369 L 366.5 367 Z " /><path fill="rgb(255,255,255)" stroke="rgb(255,255,255)" stroke-width="1" opacity="0.49019607843137253" d="M 172.5 368 L 178 372.5 L 175.5 371 L 172.5 368 Z " /><path fill="rgb(255,255,255)" stroke="rgb(255,255,255)" stroke-width="1" opacity="0.49019607843137253" d="M 375.5 368 L 380 368.5 L 375.5 369 L 375.5 368 Z " /><path fill="rgb(255,255,255)" stroke="rgb(255,255,255)" stroke-width="1" opacity="0.49019607843137253" d="M 221.5 369 L 222.5 371 L 221.5 369 Z " /><path fill="rgb(255,255,255)" stroke="rgb(255,255,255)" stroke-width="1" opacity="0.49019607843137253" d="M 307.5 369 L 309 369.5 L 305.5 371 L 305.5 370 L 307.5 369 Z " /><path fill="rgb(255,255,255)" stroke="rgb(255,255,255)" stroke-width="1" opacity="0.49019607843137253" d="M 150.5 370 L 156 374.5 L 153.5 373 L 150.5 370 Z " /><path fill="rgb(255,255,255)" stroke="rgb(255,255,255)" stroke-width="1" opacity="0.49019607843137253" d="M 224.5 371 L 225.5 373 L 224.5 371 Z " /><path fill="rgb(255,255,255)" stroke="rgb(255,255,255)" stroke-width="1" opacity="0.49019607843137253" d="M 300.5 372 L 302 372.5 L 296.5 375 L 296.5 374 L 300.5 372 Z " /><path fill="rgb(255,255,255)" stroke="rgb(255,255,255)" stroke-width="1" opacity="0.49019607843137253" d="M 179.5 373 L 185 377.5 L 182.5 376 L 179.5 373 Z " /><path fill="rgb(255,255,255)" stroke="rgb(255,255,255)" stroke-width="1" opacity="0.49019607843137253" d="M 227.5 373 L 228.5 375 L 227.5 373 Z " /><path fill="rgb(255,255,255)" stroke="rgb(255,255,255)" stroke-width="1" opacity="0.49019607843137253" d="M 157.5 375 L 163 379.5 L 160.5 378 L 157.5 375 Z " /><path fill="rgb(255,255,255)" stroke="rgb(255,255,255)" stroke-width="1" opacity="0.49019607843137253" d="M 291.5 376 L 293 376.5 L 289.5 378 L 289.5 377 L 291.5 376 Z " /><path fill="rgb(255,255,255)" stroke="rgb(255,255,255)" stroke-width="1" opacity="0.49019607843137253" d="M 186.5 378 L 192 382.5 L 189.5 381 L 186.5 378 Z " /><path fill="rgb(255,255,255)" stroke="rgb(255,255,255)" stroke-width="1" opacity="0.49019607843137253" d="M 284.5 379 L 286 379.5 L 280.5 382 L 280.5 381 L 284.5 379 Z " /><path fill="rgb(255,255,255)" stroke="rgb(255,255,255)" stroke-width="1" opacity="0.49019607843137253" d="M 164.5 380 L 170 384.5 L 167.5 383 L 164.5 380 Z " /><path fill="rgb(255,255,255)" stroke="rgb(255,255,255)" stroke-width="1" opacity="0.49019607843137253" d="M 318.5 380 L 319 461 L 304 460.5 L 318 460 L 318.5 380 Z " /><path fill="rgb(255,255,255)" stroke="rgb(255,255,255)" stroke-width="1" opacity="0.49019607843137253" d="M 193.5 383 L 199 387.5 L 196.5 386 L 193.5 383 Z " /><path fill="rgb(255,255,255)" stroke="rgb(255,255,255)" stroke-width="1" opacity="0.49019607843137253" d="M 275.5 383 L 277 383.5 L 271.5 386 L 271.5 385 L 275.5 383 Z " /><path fill="rgb(255,255,255)" stroke="rgb(255,255,255)" stroke-width="1" opacity="0.49019607843137253" d="M 171.5 385 L 177 389.5 L 174.5 388 L 171.5 385 Z " /><path fill="rgb(255,255,255)" stroke="rgb(255,255,255)" stroke-width="1" opacity="0.49019607843137253" d="M 268.5 386 L 270 386.5 L 264.5 389 L 264.5 388 L 268.5 386 Z " /><path fill="rgb(255,255,255)" stroke="rgb(255,255,255)" stroke-width="1" opacity="0.49019607843137253" d="M 200.5 388 L 206 392.5 L 203.5 391 L 200.5 388 Z " /><path fill="rgb(255,255,255)" stroke="rgb(255,255,255)" stroke-width="1" opacity="0.49019607843137253" d="M 299.5 388 L 301 388.5 L 295.5 391 L 295.5 390 L 299.5 388 Z " /><path fill="rgb(255,255,255)" stroke="rgb(255,255,255)" stroke-width="1" opacity="0.49019607843137253" d="M 178.5 390 L 184 394.5 L 181.5 393 L 178.5 390 Z " /><path fill="rgb(255,255,255)" stroke="rgb(255,255,255)" stroke-width="1" opacity="0.49019607843137253" d="M 259.5 390 L 261 390.5 L 255.5 393 L 255.5 392 L 259.5 390 Z " /><path fill="rgb(255,255,255)" stroke="rgb(255,255,255)" stroke-width="1" opacity="0.49019607843137253" d="M 292.5 391 L 294 391.5 L 288.5 394 L 288.5 393 L 292.5 391 Z " /><path fill="rgb(255,255,255)" stroke="rgb(255,255,255)" stroke-width="1" opacity="0.49019607843137253" d="M 207.5 393 L 213 397.5 L 210.5 396 L 207.5 393 Z " /><path fill="rgb(255,255,255)" stroke="rgb(255,255,255)" stroke-width="1" opacity="0.49019607843137253" d="M 250.5 394 L 252 394.5 L 248.5 396 L 248.5 395 L 250.5 394 Z " /><path fill="rgb(255,255,255)" stroke="rgb(255,255,255)" stroke-width="1" opacity="0.49019607843137253" d="M 185.5 395 L 191 399.5 L 188.5 398 L 185.5 395 Z " /><path fill="rgb(255,255,255)" stroke="rgb(255,255,255)" stroke-width="1" opacity="0.49019607843137253" d="M 283.5 395 L 285 395.5 L 279.5 398 L 279.5 397 L 283.5 395 Z " /><path fill="rgb(255,255,255)" stroke="rgb(255,255,255)" stroke-width="1" opacity="0.49019607843137253" d="M 243.5 397 L 245 397.5 L 239.5 400 L 239.5 399 L 243.5 397 Z " /><path fill="rgb(255,255,255)" stroke="rgb(255,255,255)" stroke-width="1" opacity="0.49019607843137253" d="M 214.5 398 L 221 402.5 L 219.5 403 L 214.5 398 Z " /><path fill="rgb(255,255,255)" stroke="rgb(255,255,255)" stroke-width="1" opacity="0.49019607843137253" d="M 274.5 399 L 276 399.5 L 272.5 401 L 272.5 400 L 274.5 399 Z " /><path fill="rgb(255,255,255)" stroke="rgb(255,255,255)" stroke-width="1" opacity="0.49019607843137253" d="M 192.5 400 L 198 404.5 L 195.5 403 L 192.5 400 Z " /><path fill="rgb(255,255,255)" stroke="rgb(255,255,255)" stroke-width="1" opacity="0.49019607843137253" d="M 234.5 401 L 236 401.5 L 232.5 403 L 232.5 402 L 234.5 401 Z " /><path fill="rgb(255,255,255)" stroke="rgb(255,255,255)" stroke-width="1" opacity="0.49019607843137253" d="M 267.5 402 L 269 402.5 L 263.5 405 L 263.5 404 L 267.5 402 Z " /><path fill="rgb(255,255,255)" stroke="rgb(255,255,255)" stroke-width="1" opacity="0.49019607843137253" d="M 199.5 405 L 211 413.5 L 209.5 413 L 201.5 408 L 199.5 405 Z " /><path fill="rgb(255,255,255)" stroke="rgb(255,255,255)" stroke-width="1" opacity="0.49019607843137253" d="M 258.5 406 L 260 406.5 L 256.5 408 L 256.5 407 L 258.5 406 Z " /><path fill="rgb(255,255,255)" stroke="rgb(255,255,255)" stroke-width="1" opacity="0.49019607843137253" d="M 251.5 409 L 253 409.5 L 247.5 412 L 247.5 411 L 251.5 409 Z " /><path fill="rgb(255,255,255)" stroke="rgb(255,255,255)" stroke-width="1" opacity="0.49019607843137253" d="M 242.5 413 L 244 413.5 L 238.5 416 L 238.5 415 L 242.5 413 Z " /><path fill="rgb(255,255,255)" stroke="rgb(255,255,255)" stroke-width="1" opacity="0.49019607843137253" d="M 212.5 414 L 217 416.5 L 215.5 417 L 212.5 414 Z " /><path fill="rgb(255,255,255)" stroke="rgb(255,255,255)" stroke-width="1" opacity="0.49019607843137253" d="M 218.5 417 L 221 417.5 L 218.5 418 L 218.5 417 Z " /><path fill="rgb(255,255,255)" stroke="rgb(255,255,255)" stroke-width="1" opacity="0.49019607843137253" d="M 231.5 417 L 234 417.5 L 231.5 418 L 231.5 417 Z " /><path fill="rgb(255,255,255)" stroke="rgb(255,255,255)" stroke-width="1" opacity="0.49019607843137253" d="M 223.5 418 L 229 418.5 L 223.5 419 L 223.5 418 Z " /><path fill="rgb(255,255,255)" stroke="rgb(255,255,255)" stroke-width="1" opacity="0.996078431372549" d="M 313.5 41 L 315 42.5 L 318 58.5 L 318 72.5 Q 313.3 99.8 295.5 114 L 290 117 L 290 168.5 Q 287.3 170.3 289 176.5 Q 283.5 201.5 267.5 216 L 247 229.5 L 247 249 L 270.5 249 L 280.5 238 L 283 239.5 L 289.5 247 Q 292.8 250.2 300.5 249 L 310 241.5 Q 312.5 238 311 230.5 L 308 222 L 318.5 219 L 323 214.5 Q 327 211 325 201.5 L 318 192.5 L 339.5 168 L 451 299.5 L 451 301.5 Q 441.2 317.2 427.5 329 L 410 341.5 Q 408.8 353.3 400.5 358 L 383.5 367 L 372.5 369 L 365.5 367 L 358.5 361 L 346.5 361 Q 345 363.5 339.5 362 L 338.5 361 L 332 361 Q 330.4 372.1 322.5 378 L 318 380 L 318 459.5 L 317.5 460 L 304 460 L 304 387.5 L 302.5 387 L 237.5 416 L 230.5 418 L 221.5 418 L 208.5 412 L 134 359 L 134 459.5 L 133.5 460 L 121 460 L 121 341.5 L 115 326.5 Q 116.2 321.8 114 320.5 L 114 303.5 Q 118.9 278.4 136.5 266 L 154.5 257 L 184.5 251 L 189.5 251 L 191 249.5 L 191 228.5 L 189.5 228 Q 175.2 221.8 166 210.5 Q 154.2 197.8 150 177.5 Q 151.3 172.8 149 171.5 L 149 120.5 Q 153.8 92.3 171.5 77 Q 180.8 68.3 193.5 63 L 208.5 59 L 223.5 58 L 224.5 59 L 232.5 59 L 242.5 61 L 256.5 65 L 278.5 65 L 295.5 58 L 313.5 41 Z M 303 69 L 293 75 L 278 79 L 258 79 L 226 72 L 215 72 L 205 74 L 185 84 Q 168 96 163 120 L 163 173 L 166 185 L 178 204 Q 190 217 213 221 L 226 221 L 236 219 Q 247 216 255 209 Q 268 199 274 181 L 276 172 L 276 125 L 266 128 L 255 128 L 255 115 Q 273 115 284 106 Q 299 95 304 74 Q 306 68 303 69 Z M 340 189 L 336 193 L 339 202 Q 340 218 332 226 L 325 230 Q 326 245 319 253 Q 312 261 300 263 Q 288 263 282 258 L 264 279 L 264 281 L 270 289 Q 282 302 298 311 L 293 322 Q 281 318 273 310 Q 261 302 255 290 L 245 301 L 252 311 Q 268 328 292 338 L 303 334 L 314 334 L 325 340 L 328 346 L 334 348 Q 347 349 354 347 Q 353 339 358 335 L 372 323 L 382 320 Q 400 318 406 328 L 420 318 L 434 302 L 425 290 L 419 298 L 409 307 L 400 298 L 415 281 L 415 279 L 411 274 L 340 189 Z M 205 233 L 205 257 L 206 259 L 215 263 Q 226 265 232 260 L 234 256 L 234 233 L 232 234 L 221 234 L 220 235 L 219 234 L 208 234 L 205 233 Z M 247 263 L 244 267 Q 237 275 225 277 Q 209 278 201 272 L 194 264 L 160 270 Q 149 273 142 280 Q 130 290 127 309 L 129 326 L 137 342 L 147 351 L 223 404 L 234 403 L 316 366 L 318 363 Q 319 356 317 353 L 312 348 L 304 348 L 230 374 L 183 344 L 183 342 L 189 332 L 192 332 L 231 359 L 271 345 Q 274 346 273 343 Q 260 338 251 328 Q 237 316 227 301 L 259 264 L 247 263 Z M 385 333 L 374 338 L 367 347 L 368 352 L 373 355 L 377 355 L 393 347 L 396 343 L 395 337 Q 392 332 385 333 Z " /><path fill="rgb(255,255,255)" stroke="rgb(255,255,255)" stroke-width="1" opacity="0.996078431372549" d="M 403 44 L 417 44 L 417 72 L 403 72 L 403 44 Z " /><path fill="rgb(255,255,255)" stroke="rgb(255,255,255)" stroke-width="1" opacity="0.996078431372549" d="M 375 80 L 396 80 L 396 93 L 375 93 L 375 80 Z " /><path fill="rgb(255,255,255)" stroke="rgb(255,255,255)" stroke-width="1" opacity="0.996078431372549" d="M 424 80 L 445 80 L 445 93 L 424 93 L 424 80 Z " /><path fill="rgb(255,255,255)" stroke="rgb(255,255,255)" stroke-width="1" opacity="0.996078431372549" d="M 403 101 L 417 101 L 417 129 L 403 129 L 403 101 Z " /><path fill="rgb(255,255,255)" stroke="rgb(255,255,255)" stroke-width="1" opacity="0.996078431372549" d="M 79.5 185 L 92 185 L 92 213 L 78 213 L 78 186.5 L 79.5 185 Z " /><path fill="rgb(255,255,255)" stroke="rgb(255,255,255)" stroke-width="1" opacity="0.996078431372549" d="M 50 221 L 71 221 L 71 235 L 51.5 235 L 50 233.5 L 50 221 Z " /><path fill="rgb(255,255,255)" stroke="rgb(255,255,255)" stroke-width="1" opacity="0.996078431372549" d="M 100 221 L 120 221 L 120 235 L 100 235 L 100 221 Z " /><path fill="rgb(255,255,255)" stroke="rgb(255,255,255)" stroke-width="1" opacity="0.996078431372549" d="M 347 235 L 360 235 L 360 263 L 347 263 L 347 235 Z " /><path fill="rgb(255,255,255)" stroke="rgb(255,255,255)" stroke-width="1" opacity="0.996078431372549" d="M 78 242 L 92 242 L 92 270 L 78 270 L 78 242 Z " /><path fill="rgb(255,255,255)" stroke="rgb(255,255,255)" stroke-width="1" opacity="0.996078431372549" d="M 327.5 276 L 330 277.5 L 341 301 L 328 306 L 317 283.5 L 317 281 L 327.5 276 Z " /><path fill="rgb(255,255,255)" stroke="rgb(255,255,255)" stroke-width="1" opacity="0.996078431372549" d="M 368 277 L 381 277 L 381 298 L 368 298 L 368 277 Z " /></svg>